# xmcd
#
# Track frame offsets: 
#        150
#        21285
#        37682
#        52016
#        71119
#        86865
#        103539
#        119030
#        138693
#        165424
#        185784
#        212340
#        235950
#        250002
#        266229
#        287933
#        309216
#
# Disc length: 4403 seconds
#
# Revision: 0
# Processed by: cddbd v1.5.2PL0 Copyright (c) Steve Scherf et al.
# Submitted via: ExactAudioCopy v0.99pb5
#
DISCID=fd113111
DTITLE=Cory Morrow - Live At Billy Bob´s Texas
DYEAR=2012
DGENRE=Country
TTITLE0=Ramblin' Man
TTITLE1=Nothing Better
TTITLE2=Lonesome
TTITLE3=Good Intentions
TTITLE4=Lead Me On
TTITLE5=Spinning Around the Moon (Fly)
TTITLE6=Brand New Me
TTITLE7=Hold Us Together
TTITLE8=All Said and Done
TTITLE9=Drink One More Round
TTITLE10=Restless Girl
TTITLE11=21 Days
TTITLE12=A Love Like This
TTITLE13=Gettin' Ready to Rain
TTITLE14=It's A Great Day To Be Alive
TTITLE15=Let My Love Open the Door
TTITLE16=Beer
EXTD=
EXTT0=
EXTT1=
EXTT2=
EXTT3=
EXTT4=
EXTT5=
EXTT6=
EXTT7=
EXTT8=
EXTT9=
EXTT10=
EXTT11=
EXTT12=
EXTT13=
EXTT14=
EXTT15=
EXTT16=
PLAYORDER=
